<?xml version="1.0" encoding="utf-8"?>
<!-- Generator: Adobe Illustrator 16.0.0, SVG Export Plug-In . SVG Version: 6.00 Build 0)  -->
<!DOCTYPE svg PUBLIC "-//W3C//DTD SVG 1.1//EN" "http://www.w3.org/Graphics/SVG/1.1/DTD/svg11.dtd">
<svg version="1.1" id="Layer_1" xmlns="http://www.w3.org/2000/svg" xmlns:xlink="http://www.w3.org/1999/xlink" x="0px" y="0px"
	 width="653.667px" height="130px" viewBox="-316.667 -63.75 653.667 130" enable-background="new -316.667 -63.75 653.667 130"
	 xml:space="preserve">
<path fill="#64676B" d="M-308.635-25.21c0,2.081,0.316,3.994,0.956,5.724c0.64,1.74,1.554,3.245,2.744,4.524
	c1.184,1.277,2.589,2.271,4.216,2.984c1.622,0.715,3.424,1.07,5.397,1.07s3.782-0.354,5.425-1.07
	c1.642-0.713,3.06-1.707,4.244-2.984c1.19-1.279,2.104-2.785,2.744-4.524c0.638-1.73,0.959-3.643,0.959-5.724
	c0-2.012-0.322-3.872-0.959-5.588c-0.64-1.717-1.544-3.213-2.714-4.496c-1.167-1.274-2.576-2.282-4.218-3.015
	c-1.645-0.727-3.47-1.091-5.48-1.091c-2.012,0-3.825,0.364-5.453,1.091c-1.624,0.732-3.023,1.74-4.19,3.015
	c-1.17,1.283-2.075,2.779-2.714,4.496C-308.319-29.083-308.635-27.222-308.635-25.21 M-316.146-25.21c0-3.106,0.523-5.91,1.562-8.41
	c1.04-2.505,2.486-4.633,4.329-6.387c1.843-1.754,4.037-3.103,6.579-4.054c2.537-0.951,5.303-1.422,8.301-1.422
	c3.029,0,5.823,0.471,8.382,1.422c2.556,0.952,4.767,2.3,6.629,4.054c1.867,1.753,3.315,3.881,4.356,6.387
	c1.041,2.5,1.564,5.303,1.564,8.41c0,3.032-0.523,5.798-1.564,8.303c-1.041,2.5-2.489,4.654-4.356,6.464
	c-1.862,1.81-4.073,3.215-6.629,4.216c-2.56,1.009-5.354,1.508-8.382,1.508c-2.998,0-5.765-0.5-8.301-1.508
	c-2.542-1.001-4.736-2.406-6.579-4.216c-1.843-1.81-3.289-3.964-4.329-6.464C-315.623-19.413-316.146-22.178-316.146-25.21"/>
<path fill="#64676B" d="M-257.292-27.786c0.984,0,1.975-0.073,2.958-0.219c0.989-0.145,1.87-0.42,2.659-0.821
	c0.783-0.401,1.432-0.979,1.945-1.725c0.508-0.752,0.764-1.707,0.764-2.879c0-1.059-0.237-1.926-0.708-2.603
	c-0.475-0.676-1.078-1.213-1.81-1.614c-0.73-0.405-1.562-0.676-2.491-0.825c-0.932-0.144-1.836-0.22-2.714-0.22h-6.246v10.906
	H-257.292z M-269.842-44.5h13.481c1.823,0,3.597,0.192,5.314,0.575c1.716,0.387,3.241,1.017,4.575,1.893
	c1.335,0.877,2.402,2.025,3.205,3.453c0.802,1.422,1.207,3.156,1.207,5.205c0,2.813-0.796,5.104-2.387,6.876
	c-1.585,1.771-3.75,2.967-6.488,3.591l10.351,17.204h-8.328l-8.986-16.438h-5.039v16.438h-6.904V-44.5z"/>
<path fill="#64676B" d="M-214.112-20.5l-5.976-15.779L-226.17-20.5H-214.112z M-222.882-44.5h5.97l16.719,38.797h-7.892
	l-3.616-8.877h-16.826l-3.502,8.877h-7.729L-222.882-44.5z"/>
<polygon fill="#64676B" points="-196.362,-44.5 -187.212,-44.5 -169.184,-15.458 -169.075,-15.458 -169.075,-44.5 -162.171,-44.5 
	-162.171,-5.703 -170.935,-5.703 -189.35,-35.678 -189.458,-35.678 -189.458,-5.703 -196.362,-5.703 "/>
<path fill="#64676B" d="M-120.489-7.732c-1.973,0.952-4.138,1.688-6.494,2.22c-2.357,0.527-5.071,0.793-8.139,0.793
	c-3.141,0-6.009-0.498-8.602-1.505c-2.594-1.004-4.824-2.413-6.686-4.219c-1.86-1.81-3.317-3.964-4.355-6.464
	c-1.041-2.505-1.564-5.271-1.564-8.303c0-3.106,0.54-5.91,1.62-8.41c1.078-2.505,2.556-4.633,4.436-6.387
	c1.883-1.754,4.104-3.101,6.66-4.054c2.558-0.951,5.333-1.426,8.326-1.426c3.106,0,5.947,0.447,8.522,1.342
	c2.575,0.896,4.646,2.076,6.218,3.537l-4.767,5.148c-0.984-1.095-2.365-2.029-4.133-2.794c-1.777-0.764-3.703-1.151-5.785-1.151
	c-2.042,0-3.898,0.368-5.559,1.097c-1.667,0.73-3.08,1.734-4.25,3.013c-1.166,1.283-2.071,2.779-2.711,4.496
	c-0.639,1.716-0.961,3.579-0.961,5.588c0,2.081,0.322,3.994,0.961,5.724c0.64,1.734,1.555,3.242,2.738,4.524
	c1.19,1.277,2.631,2.271,4.329,2.984c1.698,0.709,3.624,1.07,5.781,1.07c2.96,0,5.536-0.458,7.728-1.372v-9.862h-8.162v-5.701
	h14.847V-7.732z"/>
<polygon fill="#64676B" points="-112.104,-44.5 -86.407,-44.5 -86.407,-38.472 -105.199,-38.472 -105.199,-28.607 -87.389,-28.607 
	-87.389,-22.8 -105.199,-22.8 -105.199,-11.841 -85.423,-11.841 -85.423,-5.703 -112.104,-5.703 "/>
<path fill="#64676B" d="M-58.077-11.51h6.189c0.878,0,1.829-0.066,2.851-0.192c1.027-0.13,1.962-0.392,2.821-0.797
	c0.859-0.401,1.573-0.984,2.137-1.75c0.564-0.769,0.849-1.79,0.849-3.069c0-2.048-0.695-3.471-2.081-4.276
	c-1.39-0.805-3.488-1.206-6.301-1.206h-6.464V-11.51L-58.077-11.51z M-58.077-28.718h6.139c2.298,0,4.054-0.457,5.257-1.371
	c1.207-0.909,1.81-2.207,1.81-3.886c0-1.753-0.626-2.999-1.862-3.728c-1.246-0.732-3.182-1.095-5.808-1.095h-5.536V-28.718
	L-58.077-28.718z M-64.98-44.5h15.122c1.46,0,2.906,0.173,4.329,0.524c1.423,0.344,2.697,0.908,3.806,1.697
	c1.116,0.783,2.021,1.8,2.715,3.04c0.695,1.243,1.041,2.738,1.041,4.494c0,2.191-0.621,4.001-1.86,5.423
	c-1.246,1.423-2.87,2.45-4.879,3.069v0.107c2.448,0.331,4.458,1.283,6.03,2.851c1.568,1.574,2.356,3.672,2.356,6.302
	c0,2.117-0.424,3.9-1.263,5.342c-0.841,1.446-1.945,2.603-3.312,3.48c-1.372,0.876-2.943,1.51-4.717,1.894
	c-1.766,0.382-3.569,0.574-5.396,0.574H-64.98V-44.5L-64.98-44.5z"/>
<path fill="#64676B" d="M-8.597-20.5l-5.976-15.779L-20.655-20.5H-8.597z M-17.367-44.5h5.97L5.322-5.703H-2.57l-3.616-8.877
	h-16.826l-3.503,8.877h-7.728L-17.367-44.5z"/>
<path fill="#64676B" d="M21.704-27.786c0.984,0,1.974-0.073,2.958-0.219c0.992-0.145,1.875-0.42,2.661-0.821
	c0.782-0.401,1.431-0.979,1.945-1.725c0.509-0.752,0.765-1.707,0.765-2.879c0-1.059-0.236-1.926-0.708-2.603
	c-0.477-0.676-1.079-1.213-1.811-1.614c-0.73-0.405-1.565-0.676-2.49-0.825c-0.933-0.144-1.838-0.22-2.716-0.22h-6.245v10.906
	H21.704z M9.155-44.5h13.482c1.822,0,3.595,0.192,5.313,0.575c1.714,0.387,3.24,1.017,4.574,1.893
	c1.331,0.877,2.401,2.025,3.204,3.453c0.802,1.422,1.208,3.156,1.208,5.205c0,2.813-0.799,5.104-2.386,6.876
	c-1.584,1.771-3.752,2.967-6.489,3.591L38.412-5.703h-8.33l-8.985-16.438h-5.039v16.438H9.153V-44.5H9.155z"/>
<path fill="#64676B" d="M56.171-27.786c0.984,0,1.974-0.073,2.958-0.219c0.988-0.145,1.87-0.42,2.657-0.821
	c0.783-0.401,1.433-0.979,1.949-1.725c0.507-0.752,0.762-1.707,0.762-2.879c0-1.059-0.236-1.926-0.709-2.603
	c-0.473-0.676-1.077-1.213-1.809-1.614c-0.73-0.405-1.563-0.676-2.49-0.825c-0.931-0.144-1.837-0.22-2.714-0.22h-6.246v10.906
	H56.171z M43.623-44.5h13.481c1.824,0,3.597,0.192,5.313,0.575c1.718,0.387,3.244,1.017,4.576,1.893
	c1.333,0.877,2.403,2.025,3.206,3.453c0.802,1.422,1.208,3.156,1.208,5.205c0,2.813-0.799,5.104-2.388,6.876
	c-1.586,1.771-3.75,2.967-6.487,3.591L72.88-5.703h-8.328l-8.989-16.438h-5.037v16.438h-6.903V-44.5L43.623-44.5z"/>
<polygon fill="#64676B" points="78.09,-44.5 103.784,-44.5 103.784,-38.472 84.993,-38.472 84.993,-28.607 102.804,-28.607 
	102.804,-22.8 84.993,-22.8 84.993,-11.841 104.77,-11.841 104.77,-5.703 78.09,-5.703 "/>
<polygon fill="#64676B" points="111.516,-44.5 118.419,-44.5 118.419,-11.841 134.913,-11.841 134.913,-5.703 111.516,-5.703 "/>
<polygon fill="#64676B" points="186.967,-12.388 187.023,-12.388 200.013,-44.5 206.038,-44.5 206.038,-5.703 202.091,-5.703 
	202.091,-39.4 201.982,-39.4 187.953,-5.703 185.871,-5.703 171.844,-39.4 171.733,-39.4 171.733,-5.703 167.786,-5.703 
	167.786,-44.5 173.815,-44.5 "/>
<polygon fill="#64676B" points="220.279,-9.21 241.05,-9.21 241.05,-5.703 216.332,-5.703 216.332,-44.5 240.392,-44.5 
	240.392,-40.989 220.279,-40.989 220.279,-27.677 239.074,-27.677 239.074,-24.17 220.279,-24.17 "/>
<path fill="#64676B" d="M252.72-9.21h7.84c2.918,0,5.469-0.458,7.64-1.368c2.17-0.913,3.974-2.113,5.398-3.591
	c1.424-1.479,2.49-3.168,3.206-5.066c0.711-1.904,1.067-3.857,1.067-5.863c0-2.012-0.356-3.964-1.067-5.863
	c-0.716-1.899-1.782-3.593-3.206-5.071c-1.425-1.478-3.229-2.678-5.398-3.587c-2.171-0.914-4.722-1.372-7.64-1.372h-7.84V-9.21z
	 M248.774-44.5h12.879c2.411,0,4.825,0.401,7.255,1.208c2.434,0.804,4.627,2.015,6.58,3.646c1.955,1.622,3.537,3.65,4.74,6.082
	c1.203,2.431,1.81,5.248,1.81,8.466c0,3.252-0.604,6.077-1.81,8.489c-1.203,2.411-2.785,4.432-4.74,6.053
	c-1.953,1.63-4.146,2.841-6.58,3.649c-2.43,0.802-4.844,1.204-7.255,1.204h-12.879V-44.5z"/>
<rect x="289.923" y="-44.5" fill="#64676B" width="3.947" height="38.797"/>
<path fill="#64676B" d="M318.144-40.114l8.55,20.604h-17.092L318.144-40.114z M316.338-44.5l-16.77,38.797h4.33l4.22-10.193h20.057
	l4.271,10.193h4.387L320.18-44.5H316.338z"/>
<rect x="149.915" y="-63.75" fill="#FF6C2F" width="2.892" height="76.146"/>
<polygon fill="#64676B" points="-44.555,55.166 -33.185,55.166 -33.185,57.371 -47.038,57.371 -47.038,32.978 -44.555,32.978 "/>
<path fill="#64676B" d="M-15.995,46.936c0-1.395-0.368-2.428-1.104-3.111c-0.735-0.686-1.802-1.027-3.204-1.027
	c-0.965,0-1.86,0.176-2.687,0.52c-0.826,0.344-1.527,0.805-2.101,1.379l-1.311-1.549c0.667-0.67,1.545-1.219,2.636-1.654
	c1.091-0.438,2.325-0.656,3.704-0.656c0.873,0,1.688,0.119,2.446,0.365c0.758,0.238,1.424,0.602,1.998,1.084
	c0.574,0.482,1.021,1.092,1.343,1.826s0.483,1.594,0.483,2.582v7.062c0,0.621,0.022,1.264,0.069,1.93
	c0.047,0.668,0.114,1.229,0.207,1.689h-2.102c-0.067-0.391-0.126-0.814-0.17-1.275c-0.048-0.461-0.07-0.906-0.07-1.342h-0.069
	c-0.734,1.08-1.568,1.854-2.498,2.324c-0.93,0.471-2.05,0.707-3.358,0.707c-0.621,0-1.257-0.088-1.913-0.26
	c-0.655-0.172-1.251-0.455-1.792-0.85c-0.539-0.389-0.987-0.896-1.343-1.518c-0.356-0.623-0.535-1.385-0.535-2.285
	c0-1.244,0.316-2.227,0.95-2.953c0.63-0.725,1.474-1.268,2.531-1.623c1.056-0.359,2.269-0.59,3.635-0.693
	c1.366-0.102,2.785-0.154,4.255-0.154V46.936z M-16.683,49.309c-0.965,0-1.936,0.041-2.911,0.119
	c-0.976,0.084-1.86,0.242-2.653,0.484c-0.792,0.24-1.442,0.592-1.947,1.049c-0.506,0.461-0.758,1.07-0.758,1.824
	c0,0.576,0.109,1.061,0.327,1.447c0.218,0.393,0.512,0.709,0.878,0.949c0.368,0.242,0.775,0.414,1.225,0.516
	c0.447,0.105,0.901,0.156,1.36,0.156c0.828,0,1.562-0.143,2.204-0.43c0.644-0.289,1.184-0.682,1.62-1.174
	c0.436-0.494,0.769-1.061,1-1.705c0.228-0.643,0.344-1.318,0.344-2.031v-1.205H-16.683z"/>
<path fill="#64676B" d="M-3.332,41.248c0.046,0.438,0.08,0.918,0.104,1.447c0.022,0.527,0.033,0.965,0.033,1.311h0.07
	c0.458-0.941,1.205-1.707,2.239-2.295c1.033-0.584,2.124-0.875,3.273-0.875c2.042,0,3.578,0.607,4.598,1.824
	c1.022,1.217,1.533,2.824,1.533,4.822v9.889H6.177v-8.922c0-0.85-0.067-1.621-0.206-2.309c-0.139-0.686-0.374-1.279-0.707-1.773
	c-0.334-0.494-0.782-0.879-1.344-1.152c-0.564-0.279-1.269-0.418-2.119-0.418c-0.62,0-1.223,0.125-1.809,0.381
	c-0.586,0.252-1.108,0.637-1.567,1.152c-0.461,0.52-0.827,1.172-1.103,1.967c-0.275,0.789-0.414,1.729-0.414,2.807v8.27h-2.341
	V44.799c0-0.438-0.015-1-0.035-1.688c-0.024-0.688-0.059-1.312-0.104-1.861h2.239V41.248z"/>
<path fill="#64676B" d="M29.438,54.648c-0.69,1.035-1.585,1.818-2.691,2.344c-1.099,0.527-2.237,0.793-3.41,0.793
	c-1.264,0-2.407-0.219-3.429-0.654c-1.022-0.439-1.894-1.035-2.619-1.793c-0.723-0.758-1.287-1.656-1.688-2.686
	C15.2,51.615,15,50.504,15,49.307c0-1.195,0.201-2.305,0.602-3.342c0.401-1.033,0.965-1.928,1.688-2.689
	c0.725-0.758,1.597-1.352,2.619-1.791c1.022-0.436,2.165-0.654,3.429-0.654c1.169,0,2.309,0.268,3.41,0.811
	c1.104,0.541,1.999,1.338,2.691,2.395h0.068V31.319h2.342v26.052h-2.342v-2.723H29.438z M17.482,49.309
	c0,0.896,0.136,1.74,0.414,2.535c0.274,0.789,0.67,1.48,1.187,2.064c0.519,0.584,1.154,1.047,1.914,1.377
	c0.759,0.334,1.618,0.502,2.583,0.502c0.897,0,1.722-0.168,2.48-0.502c0.759-0.33,1.414-0.785,1.962-1.361
	c0.553-0.572,0.984-1.254,1.292-2.049c0.311-0.795,0.466-1.648,0.466-2.566c0-0.916-0.155-1.773-0.466-2.566
	c-0.308-0.791-0.74-1.48-1.292-2.064c-0.549-0.59-1.203-1.045-1.962-1.381c-0.759-0.332-1.583-0.5-2.48-0.5
	c-0.965,0-1.824,0.176-2.583,0.52c-0.759,0.344-1.395,0.811-1.914,1.395c-0.517,0.584-0.912,1.275-1.187,2.068
	C17.619,47.57,17.482,48.412,17.482,49.309"/>
<path fill="#64676B" d="M45.301,41.711c0.954-0.584,2.016-0.877,3.189-0.877c0.435,0,0.889,0.047,1.358,0.139
	c0.469,0.09,0.931,0.27,1.378,0.535c0.448,0.262,0.863,0.611,1.243,1.047c0.376,0.438,0.706,1,0.982,1.689
	c0.551-1.102,1.302-1.947,2.256-2.535c0.954-0.584,2.085-0.877,3.393-0.877c2.045,0,3.578,0.607,4.6,1.826
	c1.024,1.217,1.533,2.824,1.533,4.82v9.891h-2.343v-8.92c0-1.701-0.316-3.066-0.946-4.104c-0.632-1.031-1.707-1.549-3.221-1.549
	c-0.85,0-1.568,0.172-2.151,0.518c-0.588,0.344-1.058,0.799-1.414,1.361s-0.613,1.199-0.772,1.91
	c-0.161,0.709-0.242,1.449-0.242,2.207v8.578h-2.341v-9.408c0-0.779-0.059-1.492-0.176-2.135c-0.115-0.645-0.318-1.188-0.604-1.637
	s-0.683-0.793-1.187-1.033c-0.507-0.242-1.15-0.363-1.93-0.363c-0.553,0-1.107,0.123-1.669,0.377
	c-0.564,0.256-1.071,0.639-1.516,1.158c-0.449,0.516-0.81,1.17-1.088,1.963c-0.276,0.793-0.413,1.729-0.413,2.807v8.27h-2.343
	V44.795c0-0.436-0.011-0.998-0.034-1.688c-0.027-0.686-0.057-1.309-0.106-1.861h2.24c0.043,0.439,0.08,0.92,0.103,1.447
	c0.024,0.529,0.036,0.965,0.036,1.312h0.068C43.642,43.062,44.35,42.299,45.301,41.711"/>
<path fill="#64676B" d="M83.524,46.936c0-1.395-0.367-2.428-1.103-3.111c-0.734-0.686-1.803-1.027-3.204-1.027
	c-0.965,0-1.86,0.176-2.687,0.52c-0.825,0.344-1.527,0.805-2.101,1.379l-1.31-1.549c0.666-0.67,1.544-1.219,2.634-1.654
	c1.09-0.438,2.324-0.656,3.705-0.656c0.871,0,1.686,0.119,2.445,0.365c0.759,0.238,1.423,0.602,1.999,1.084s1.02,1.092,1.341,1.826
	s0.483,1.594,0.483,2.582v7.062c0,0.621,0.022,1.264,0.07,1.93c0.043,0.668,0.114,1.229,0.206,1.689h-2.104
	c-0.064-0.391-0.125-0.814-0.17-1.275s-0.068-0.906-0.068-1.342h-0.068c-0.738,1.08-1.571,1.854-2.498,2.324
	c-0.931,0.471-2.053,0.707-3.359,0.707c-0.621,0-1.258-0.088-1.913-0.26s-1.252-0.455-1.792-0.85
	c-0.539-0.389-0.986-0.896-1.341-1.518c-0.358-0.623-0.534-1.385-0.534-2.285c0-1.244,0.314-2.227,0.95-2.953
	c0.628-0.725,1.474-1.268,2.53-1.623c1.056-0.359,2.269-0.59,3.635-0.693c1.366-0.102,2.786-0.154,4.254-0.154V46.936L83.524,46.936
	z M82.836,49.309c-0.965,0-1.936,0.041-2.911,0.119c-0.976,0.084-1.86,0.242-2.653,0.484c-0.791,0.24-1.442,0.592-1.947,1.049
	c-0.505,0.461-0.759,1.07-0.759,1.824c0,0.576,0.11,1.061,0.329,1.447c0.216,0.393,0.511,0.709,0.878,0.949
	c0.365,0.242,0.772,0.414,1.225,0.516c0.445,0.105,0.901,0.156,1.36,0.156c0.825,0,1.562-0.143,2.203-0.43
	c0.643-0.289,1.185-0.682,1.62-1.174s0.768-1.061,0.999-1.705c0.231-0.643,0.348-1.318,0.348-2.031v-1.205H82.836z"/>
<path fill="#64676B" d="M94.402,43.107c-0.023-0.686-0.057-1.311-0.102-1.859h2.238c0.043,0.438,0.082,0.918,0.104,1.445
	c0.022,0.529,0.034,0.965,0.034,1.312h0.068c0.459-0.941,1.146-1.703,2.068-2.295c0.917-0.584,1.951-0.877,3.102-0.877
	c0.297,0,0.567,0.016,0.81,0.037c0.239,0.021,0.484,0.068,0.738,0.137l-0.311,2.236c-0.136-0.041-0.367-0.09-0.689-0.137
	c-0.321-0.043-0.643-0.068-0.961-0.068c-0.625,0-1.221,0.117-1.794,0.346c-0.573,0.23-1.073,0.59-1.499,1.082
	c-0.426,0.494-0.768,1.123-1.033,1.893c-0.265,0.766-0.394,1.688-0.394,2.766v8.25h-2.343V44.801
	C94.438,44.359,94.424,43.797,94.402,43.107"/>
<polygon fill="#64676B" points="112.413,48.516 112.515,48.516 119.958,41.248 123.332,41.248 115.202,48.619 124.161,57.373 
	120.715,57.373 112.515,48.896 112.413,48.896 112.413,57.373 110.07,57.373 110.07,31.327 112.413,31.327 "/>
<path fill="#64676B" d="M142.421,57.371H139.7l10.541-24.391h2.411l10.472,24.391h-2.755l-2.687-6.41h-12.61L142.421,57.371z
	 M146.006,48.691h10.748l-5.372-12.955L146.006,48.691z"/>
<path fill="#64676B" d="M180.935,54.648c-0.689,1.035-1.586,1.818-2.688,2.344c-1.104,0.527-2.24,0.793-3.41,0.793
	c-1.264,0-2.407-0.219-3.433-0.654c-1.021-0.439-1.893-1.035-2.619-1.793c-0.723-0.758-1.287-1.656-1.686-2.686
	c-0.403-1.037-0.604-2.148-0.604-3.346c0-1.195,0.201-2.305,0.604-3.342c0.399-1.033,0.963-1.928,1.686-2.689
	c0.726-0.758,1.597-1.352,2.619-1.791c1.024-0.436,2.167-0.654,3.433-0.654c1.17,0,2.305,0.268,3.41,0.811
	c1.102,0.541,1.998,1.338,2.688,2.395h0.067V31.319h2.343v26.052h-2.343v-2.723H180.935z M168.979,49.309
	c0,0.896,0.137,1.74,0.414,2.535c0.278,0.791,0.672,1.48,1.188,2.064s1.152,1.047,1.913,1.377c0.757,0.334,1.616,0.502,2.581,0.502
	c0.897,0,1.725-0.168,2.479-0.502c0.761-0.33,1.413-0.785,1.964-1.361c0.553-0.572,0.984-1.254,1.295-2.049
	c0.307-0.793,0.462-1.648,0.462-2.566c0-0.916-0.155-1.773-0.462-2.566c-0.311-0.791-0.742-1.48-1.295-2.064
	c-0.549-0.586-1.203-1.045-1.964-1.381c-0.757-0.332-1.582-0.5-2.479-0.5c-0.965,0-1.824,0.176-2.581,0.52
	c-0.763,0.344-1.398,0.811-1.913,1.395c-0.521,0.584-0.914,1.275-1.188,2.068C169.118,47.57,168.979,48.412,168.979,49.309"/>
<polygon fill="#64676B" points="198.297,57.371 195.713,57.371 189.132,41.246 191.751,41.246 196.987,54.891 197.057,54.891 
	202.327,41.246 204.842,41.246 "/>
<path fill="#64676B" d="M224.549,48.826v0.52c0,0.184-0.012,0.377-0.034,0.586h-13.367c0.022,0.805,0.186,1.561,0.482,2.273
	s0.712,1.334,1.243,1.859c0.524,0.525,1.146,0.949,1.858,1.256c0.711,0.311,1.481,0.467,2.307,0.467
	c1.217,0,2.269-0.283,3.154-0.844c0.882-0.564,1.556-1.211,2.014-1.947l1.758,1.377c-0.965,1.219-2.026,2.092-3.188,2.619
	s-2.407,0.793-3.739,0.793c-1.192,0-2.301-0.213-3.325-0.639c-1.02-0.426-1.897-1.016-2.632-1.773s-1.317-1.652-1.741-2.688
	c-0.424-1.033-0.636-2.16-0.636-3.377s0.204-2.342,0.617-3.377c0.416-1.033,0.989-1.926,1.724-2.686
	c0.734-0.758,1.598-1.35,2.585-1.775c0.986-0.424,2.058-0.637,3.204-0.637c1.264,0,2.377,0.213,3.342,0.637
	c0.965,0.426,1.77,1.002,2.412,1.725c0.642,0.723,1.13,1.568,1.463,2.533C224.382,46.691,224.549,47.725,224.549,48.826
	 M222.172,48.07c-0.068-1.516-0.557-2.779-1.465-3.773c-0.908-1-2.198-1.5-3.875-1.5c-0.781,0-1.505,0.145-2.171,0.434
	c-0.668,0.287-1.251,0.678-1.758,1.172c-0.505,0.492-0.906,1.057-1.205,1.688c-0.298,0.633-0.472,1.291-0.517,1.982h10.99V48.07z"/>
<path fill="#64676B" d="M230.233,43.107c-0.022-0.686-0.059-1.311-0.103-1.859h2.235c0.047,0.438,0.081,0.918,0.107,1.445
	c0.02,0.529,0.032,0.965,0.032,1.312h0.07c0.458-0.941,1.146-1.703,2.066-2.295c0.92-0.584,1.953-0.877,3.1-0.877
	c0.299,0,0.567,0.016,0.81,0.037s0.488,0.068,0.742,0.137l-0.311,2.236c-0.136-0.041-0.367-0.09-0.688-0.137
	c-0.322-0.043-0.644-0.068-0.962-0.068c-0.622,0-1.219,0.117-1.794,0.346c-0.571,0.23-1.074,0.59-1.498,1.082
	c-0.424,0.494-0.769,1.123-1.033,1.893c-0.264,0.766-0.396,1.688-0.396,2.766v8.25h-2.343V44.801
	C230.268,44.359,230.256,43.797,230.233,43.107"/>
<path fill="#64676B" d="M253.66,43.211h-4.549v9.404c0,0.598,0.057,1.094,0.174,1.484c0.113,0.389,0.28,0.693,0.5,0.914
	c0.216,0.217,0.477,0.365,0.775,0.443c0.295,0.082,0.617,0.123,0.965,0.123c0.322,0,0.659-0.047,1.015-0.139
	s0.692-0.219,1.015-0.377l0.104,2.031c-0.414,0.164-0.842,0.283-1.29,0.363c-0.45,0.08-0.938,0.121-1.467,0.121
	c-0.439,0-0.897-0.059-1.378-0.174s-0.929-0.334-1.344-0.656c-0.412-0.32-0.753-0.758-1.014-1.309
	c-0.267-0.551-0.394-1.275-0.394-2.172V43.215h-3.346v-1.969h3.346v-4.547h2.339v4.547h4.549V43.211L253.66,43.211z"/>
<path fill="#64676B" d="M263.616,35.047c0,0.48-0.173,0.879-0.517,1.186c-0.345,0.311-0.724,0.467-1.136,0.467
	c-0.416,0-0.793-0.156-1.14-0.467c-0.344-0.307-0.518-0.705-0.518-1.186c0-0.484,0.174-0.878,0.518-1.187
	c0.347-0.31,0.724-0.465,1.14-0.465c0.412,0,0.791,0.155,1.136,0.465C263.443,34.168,263.616,34.562,263.616,35.047 M263.134,57.371
	h-2.343V41.246h2.343V57.371z"/>
<path fill="#64676B" d="M280.017,45.072c-0.345-0.67-0.866-1.211-1.568-1.639c-0.7-0.426-1.497-0.639-2.394-0.639
	c-0.413,0-0.829,0.047-1.242,0.139c-0.412,0.092-0.779,0.24-1.102,0.447c-0.321,0.205-0.578,0.469-0.775,0.791
	c-0.195,0.322-0.291,0.699-0.291,1.139c0,0.76,0.311,1.336,0.931,1.738c0.619,0.402,1.597,0.74,2.928,1.018
	c1.905,0.385,3.313,0.957,4.22,1.705c0.91,0.746,1.362,1.75,1.362,3.014c0,0.92-0.18,1.693-0.531,2.326
	c-0.36,0.633-0.823,1.146-1.398,1.549s-1.223,0.689-1.947,0.861c-0.724,0.172-1.454,0.26-2.188,0.26
	c-1.217,0-2.397-0.254-3.549-0.758c-1.148-0.506-2.091-1.297-2.825-2.381l1.86-1.377c0.416,0.713,1.021,1.311,1.826,1.791
	c0.803,0.484,1.688,0.727,2.653,0.727c0.503,0,0.987-0.045,1.445-0.141c0.458-0.09,0.861-0.254,1.205-0.48
	c0.347-0.229,0.621-0.523,0.827-0.877c0.208-0.357,0.311-0.799,0.311-1.33c0-0.848-0.409-1.486-1.223-1.91
	c-0.815-0.424-1.99-0.822-3.53-1.189c-0.481-0.117-0.994-0.256-1.533-0.432c-0.539-0.174-1.041-0.424-1.499-0.758
	s-0.84-0.752-1.136-1.254c-0.299-0.508-0.446-1.141-0.446-1.898c0-0.826,0.159-1.533,0.48-2.117
	c0.322-0.588,0.754-1.068,1.295-1.449c0.537-0.379,1.15-0.66,1.841-0.846c0.688-0.186,1.402-0.275,2.137-0.275
	c1.124,0,2.216,0.254,3.271,0.756c1.057,0.51,1.848,1.223,2.379,2.141L280.017,45.072z"/>
<path fill="#64676B" d="M291.658,35.047c0,0.48-0.17,0.879-0.515,1.186c-0.345,0.311-0.725,0.467-1.138,0.467
	c-0.414,0-0.792-0.156-1.137-0.467c-0.345-0.307-0.519-0.705-0.519-1.186c0-0.484,0.174-0.878,0.519-1.187
	c0.345-0.31,0.723-0.465,1.137-0.465c0.413,0,0.793,0.155,1.138,0.465C291.488,34.168,291.658,34.562,291.658,35.047
	 M291.178,57.371h-2.347V41.246h2.347V57.371z"/>
<path fill="#64676B" d="M301.582,41.248c0.045,0.438,0.083,0.918,0.105,1.447c0.021,0.527,0.032,0.965,0.032,1.311h0.07
	c0.458-0.941,1.205-1.707,2.24-2.295c1.033-0.584,2.123-0.875,3.271-0.875c2.043,0,3.58,0.607,4.598,1.824
	c1.022,1.217,1.533,2.824,1.533,4.822v9.889h-2.343v-8.922c0-0.85-0.066-1.621-0.204-2.309c-0.139-0.686-0.373-1.279-0.706-1.773
	c-0.335-0.494-0.781-0.879-1.344-1.152c-0.563-0.279-1.266-0.418-2.119-0.418c-0.619,0-1.223,0.125-1.808,0.381
	c-0.588,0.252-1.108,0.637-1.57,1.152c-0.462,0.52-0.827,1.172-1.102,1.967c-0.276,0.789-0.412,1.729-0.412,2.807v8.27h-2.343
	V44.799c0-0.438-0.016-1-0.036-1.688c-0.024-0.688-0.059-1.312-0.104-1.861h2.241V41.248z"/>
<path fill="#64676B" d="M321.046,60.609c0.644,0.828,1.521,1.525,2.637,2.102c1.114,0.574,2.291,0.861,3.53,0.861
	c1.149,0,2.125-0.168,2.93-0.5c0.805-0.334,1.451-0.787,1.945-1.363c0.494-0.57,0.857-1.244,1.088-2.012
	c0.228-0.77,0.345-1.592,0.345-2.465v-3.031h-0.068c-0.62,1.01-1.499,1.791-2.638,2.342c-1.136,0.553-2.29,0.828-3.459,0.828
	c-1.263,0-2.405-0.207-3.431-0.619c-1.021-0.414-1.895-0.984-2.617-1.707c-0.724-0.721-1.287-1.59-1.688-2.6
	c-0.402-1.012-0.605-2.104-0.605-3.273c0-1.148,0.203-2.227,0.605-3.236c0.401-1.012,0.965-1.898,1.688-2.654
	c0.723-0.76,1.593-1.354,2.617-1.791c1.023-0.439,2.166-0.656,3.431-0.656c1.171,0,2.32,0.275,3.441,0.828
	c1.127,0.551,2.012,1.342,2.655,2.377h0.068v-2.791h2.343v15.986c0,0.871-0.121,1.803-0.363,2.789s-0.688,1.898-1.342,2.723
	c-0.654,0.826-1.544,1.514-2.67,2.062c-1.126,0.553-2.583,0.83-4.375,0.83c-1.495,0-2.918-0.287-4.273-0.859
	c-1.354-0.576-2.517-1.369-3.478-2.379L321.046,60.609z M321.495,49.104c0,0.848,0.138,1.652,0.414,2.41s0.67,1.424,1.188,1.996
	c0.517,0.576,1.152,1.027,1.911,1.361c0.759,0.332,1.62,0.502,2.585,0.502c0.894,0,1.722-0.15,2.477-0.449
	c0.763-0.297,1.414-0.723,1.967-1.273c0.549-0.553,0.98-1.211,1.29-1.98c0.311-0.768,0.466-1.625,0.466-2.566
	c0-0.85-0.155-1.654-0.466-2.412c-0.31-0.756-0.741-1.424-1.29-1.998c-0.551-0.572-1.204-1.033-1.967-1.377
	c-0.757-0.344-1.583-0.52-2.477-0.52c-0.965,0-1.826,0.176-2.585,0.52c-0.761,0.344-1.396,0.805-1.911,1.377
	c-0.519,0.574-0.912,1.242-1.188,1.998S321.495,48.252,321.495,49.104"/>
</svg>
